 <svg
                className= "bg-style"
                  viewBox="0 0 510 57"
                  fill="none"
                  xmlns="http://www.w3.org/2000/svg"
                >
                  <g clipPath="url(#clip0_970_359924)">
                    <path
                      d="M67.3064 12.5788H76.4198L86.6207 41.2464H86.7241L96.6664 12.5788H105.676V49.1967H99.5135V20.9371H99.4101L89.1575 49.1951H83.8236L73.571 20.9371H73.4676V49.1951H67.3047V12.5788H67.3064Z"
                      fill="#003873"
                    ></path>
                    <path
                      d="M135.298 43.298C135.298 44.0166 135.393 44.5286 135.583 44.8359C135.774 45.1431 136.144 45.2967 136.698 45.2967H137.32C137.562 45.2967 137.837 45.2637 138.149 45.1943V49.2463C137.942 49.314 137.673 49.3916 137.346 49.4775C137.018 49.5618 136.681 49.6394 136.337 49.7088C135.992 49.7765 135.647 49.8277 135.302 49.8624C134.956 49.8954 134.663 49.9136 134.421 49.9136C133.212 49.9136 132.211 49.6741 131.417 49.1951C130.623 48.716 130.104 47.8786 129.864 46.6826C128.69 47.8108 127.249 48.6318 125.541 49.1439C123.833 49.6559 122.184 49.9136 120.596 49.9136C119.387 49.9136 118.231 49.7517 117.127 49.4263C116.021 49.1026 115.047 48.6235 114.201 47.9909C113.355 47.3582 112.682 46.5554 112.181 45.5808C111.681 44.6063 111.431 43.4698 111.431 42.1698C111.431 40.5279 111.733 39.1948 112.336 38.169C112.94 37.1433 113.734 36.3405 114.718 35.759C115.702 35.1776 116.806 34.7597 118.032 34.502C119.256 34.2459 120.492 34.0494 121.735 33.9123C122.804 33.7074 123.823 33.5621 124.79 33.4762C125.756 33.3919 126.612 33.2449 127.354 33.0401C128.096 32.8353 128.683 32.5198 129.115 32.0919C129.547 31.6641 129.763 31.0232 129.763 30.1692C129.763 29.4176 129.581 28.8015 129.219 28.3224C128.857 27.8434 128.406 27.4767 127.873 27.2207C127.337 26.9646 126.742 26.7928 126.086 26.7086C125.431 26.6243 124.809 26.5797 124.222 26.5797C122.564 26.5797 121.201 26.9217 120.13 27.6055C119.06 28.2894 118.456 29.3499 118.317 30.7853H112.415C112.518 29.0757 112.932 27.6567 113.657 26.5285C114.383 25.4003 115.305 24.4951 116.428 23.8096C117.548 23.1258 118.818 22.6484 120.234 22.3742C121.648 22.1016 123.099 21.9645 124.584 21.9645C125.895 21.9645 127.191 22.1016 128.468 22.3742C129.744 22.6484 130.893 23.0927 131.912 23.7072C132.93 24.3233 133.75 25.1179 134.373 26.0925C134.995 27.067 135.305 28.2547 135.305 29.6571V43.2997L135.298 43.298ZM129.396 35.9126C128.498 36.4941 127.392 36.8443 126.081 36.9632C124.769 37.0838 123.458 37.2622 122.145 37.5017C121.523 37.6041 120.919 37.7495 120.332 37.9378C119.745 38.1261 119.226 38.3821 118.779 38.7075C118.331 39.033 117.977 39.4591 117.719 39.9894C117.46 40.5196 117.33 41.1605 117.33 41.9121C117.33 42.5613 117.518 43.1097 117.9 43.5524C118.279 43.9967 118.738 44.3469 119.273 44.6046C119.808 44.8606 120.394 45.0407 121.034 45.1431C121.673 45.2455 122.252 45.2967 122.769 45.2967C123.424 45.2967 124.132 45.2125 124.892 45.0407C125.651 44.8706 126.368 44.5798 127.04 44.1685C127.714 43.7589 128.275 43.2369 128.723 42.6042C129.172 41.9716 129.397 41.1936 129.397 40.2702V35.911L129.396 35.9126Z"
                      fill="#003873"
                    ></path>
                    <path
                      d="M141.926 22.6814H147.467V27.8104H147.571C147.742 27.0918 148.079 26.3914 148.58 25.7076C149.08 25.0237 149.684 24.3993 150.393 23.836C151.1 23.2711 151.885 22.8185 152.749 22.4766C153.612 22.1346 154.492 21.9645 155.39 21.9645C156.08 21.9645 156.556 21.9827 156.814 22.0157C157.073 22.0504 157.34 22.0851 157.616 22.1181V27.7592C157.203 27.6914 156.779 27.6303 156.347 27.5791C155.915 27.5279 155.493 27.5015 155.078 27.5015C154.075 27.5015 153.136 27.698 152.256 28.0912C151.375 28.4843 150.606 29.0658 149.951 29.8355C149.295 30.6053 148.777 31.5534 148.398 32.6816C148.018 33.8098 147.827 35.1098 147.827 36.58V49.1967H141.925V22.6831L141.926 22.6814Z"
                      fill="#003873"
                    ></path>
                    <path
                      d="M160.567 12.5788H166.47V33.4002L177.138 22.6814H184.388L174.135 32.4256L185.372 49.1951H178.173L169.992 36.3223L166.471 39.7069V49.1951H160.569V12.5788H160.567Z"
                      fill="#003873"
                    ></path>
                    <path
                      d="M190.497 37.4521C190.497 38.4779 190.644 39.469 190.938 40.4271C191.231 41.3852 191.672 42.2227 192.259 42.9396C192.846 43.6581 193.588 44.2313 194.485 44.6575C195.383 45.0853 196.453 45.2984 197.696 45.2984C199.422 45.2984 200.812 44.9317 201.864 44.195C202.917 43.4599 203.702 42.3581 204.221 40.8863H209.813C209.503 42.3218 208.968 43.6052 208.209 44.7335C207.448 45.8617 206.534 46.8098 205.463 47.5796C204.393 48.3493 203.193 48.9308 201.864 49.3239C200.535 49.7171 199.145 49.9136 197.696 49.9136C195.589 49.9136 193.726 49.5717 192.104 48.8878C190.481 48.204 189.108 47.2476 187.987 46.0153C186.865 44.7847 186.019 43.3145 185.45 41.6049C184.88 39.8952 184.596 38.0154 184.596 35.9638C184.596 34.084 184.898 32.2968 185.502 30.6053C186.106 28.9121 186.968 27.4255 188.091 26.1437C189.211 24.8618 190.567 23.8443 192.155 23.0927C193.743 22.3411 195.538 21.9645 197.541 21.9645C199.646 21.9645 201.537 22.4006 203.212 23.2728C204.886 24.1449 206.276 25.2979 207.38 26.735C208.484 28.1705 209.286 29.8207 209.788 31.6839C210.289 33.5472 210.417 35.4716 210.177 37.4538H190.499L190.497 37.4521ZM204.273 33.605C204.202 32.6816 204.004 31.7929 203.677 30.9389C203.349 30.0849 202.9 29.3416 202.331 28.709C201.761 28.0763 201.07 27.5642 200.26 27.1711C199.447 26.778 198.542 26.5814 197.541 26.5814C196.54 26.5814 195.564 26.7614 194.719 27.1199C193.873 27.4783 193.148 27.9755 192.544 28.6066C191.94 29.2392 191.456 29.9825 191.094 30.8382C190.733 31.6938 190.532 32.6156 190.499 33.6067H204.274L204.273 33.605Z"
                      fill="#003873"
                    ></path>
                    <path
                      d="M212.247 22.6814H216.7V14.7328H222.603V22.6814H227.937V27.0406H222.603V41.1952C222.603 41.8114 222.629 42.3416 222.681 42.7843C222.733 43.2286 222.853 43.6052 223.043 43.9125C223.233 44.2197 223.517 44.451 223.897 44.6046C224.277 44.7582 224.794 44.8359 225.45 44.8359C225.863 44.8359 226.279 44.8276 226.692 44.8094C227.106 44.7929 227.521 44.7318 227.935 44.6294V49.1422C227.28 49.2099 226.641 49.2793 226.019 49.347C225.396 49.4148 224.758 49.4495 224.102 49.4495C222.549 49.4495 221.297 49.3041 220.348 49.0134C219.397 48.7226 218.657 48.2948 218.121 47.7315C217.586 47.1666 217.224 46.458 217.034 45.604C216.843 44.75 216.732 43.7754 216.697 42.6802V27.039H212.243V22.6798L212.247 22.6814Z"
                      fill="#003873"
                    ></path>
                    <path
                      d="M240.521 12.5788H270.451V18.1174H258.696V49.1967H252.223V18.1174H240.519V12.5788H240.521Z"
                      fill="#003873"
                    ></path>
                    <path
                      d="M271.589 22.6814H277.13V27.8104H277.233C277.405 27.0918 277.742 26.3914 278.242 25.7076C278.743 25.0237 279.346 24.3993 280.055 23.836C280.762 23.2711 281.548 22.8185 282.412 22.4766C283.274 22.1346 284.155 21.9645 285.052 21.9645C285.743 21.9645 286.218 21.9827 286.477 22.0157C286.735 22.0504 287.002 22.0851 287.279 22.1181V27.7592C286.865 27.6914 286.442 27.6303 286.01 27.5791C285.578 27.5279 285.156 27.5015 284.74 27.5015C283.738 27.5015 282.799 27.698 281.918 28.0912C281.038 28.4843 280.269 29.0658 279.613 29.8355C278.958 30.6053 278.439 31.5534 278.06 32.6816C277.68 33.8098 277.49 35.1098 277.49 36.58V49.1967H271.587V22.6831L271.589 22.6814Z"
                      fill="#003873"
                    ></path>
                    <path
                      d="M312.497 43.298C312.497 44.0166 312.593 44.5286 312.783 44.8359C312.971 45.1431 313.343 45.2967 313.895 45.2967H314.517C314.759 45.2967 315.034 45.2637 315.346 45.1943V49.2463C315.139 49.314 314.871 49.3916 314.544 49.4775C314.215 49.5618 313.878 49.6394 313.535 49.7088C313.19 49.7765 312.844 49.8277 312.499 49.8624C312.154 49.8954 311.86 49.9136 311.618 49.9136C310.409 49.9136 309.409 49.6741 308.615 49.1951C307.821 48.716 307.302 47.8786 307.062 46.6826C305.888 47.8108 304.447 48.6318 302.739 49.1439C301.029 49.6559 299.381 49.9136 297.793 49.9136C296.584 49.9136 295.428 49.7517 294.324 49.4263C293.218 49.1026 292.244 48.6235 291.399 47.9909C290.553 47.3582 289.879 46.5554 289.379 45.5808C288.878 44.6063 288.628 43.4698 288.628 42.1698C288.628 40.5279 288.93 39.1948 289.534 38.169C290.138 37.1433 290.932 36.3405 291.916 35.759C292.9 35.1776 294.004 34.7597 295.23 34.502C296.454 34.2459 297.69 34.0494 298.932 33.9123C300.002 33.7074 301.021 33.5621 301.988 33.4762C302.954 33.3919 303.809 33.2449 304.552 33.0401C305.294 32.8353 305.881 32.5198 306.313 32.0919C306.745 31.6641 306.96 31.0232 306.96 30.1692C306.96 29.4176 306.778 28.8015 306.416 28.3224C306.054 27.8434 305.604 27.4767 305.07 27.2207C304.535 26.9646 303.939 26.7928 303.284 26.7086C302.629 26.6243 302.006 26.5797 301.419 26.5797C299.761 26.5797 298.399 26.9217 297.328 27.6055C296.257 28.2894 295.653 29.3499 295.515 30.7853H289.612C289.716 29.0757 290.129 27.6567 290.855 26.5285C291.58 25.4003 292.503 24.4951 293.625 23.8096C294.746 23.1258 296.015 22.6484 297.431 22.3742C298.847 22.1016 300.297 21.9645 301.781 21.9645C303.092 21.9645 304.386 22.1016 305.666 22.3742C306.943 22.6484 308.091 23.0927 309.11 23.7072C310.127 24.3233 310.948 25.1179 311.57 26.0925C312.192 27.067 312.502 28.2547 312.502 29.6571V43.2997L312.497 43.298ZM306.595 35.9126C305.697 36.4941 304.592 36.8443 303.281 36.9632C301.968 37.0838 300.657 37.2622 299.344 37.5017C298.722 37.6041 298.119 37.7495 297.531 37.9378C296.944 38.1261 296.426 38.3821 295.979 38.7075C295.53 39.033 295.176 39.4591 294.916 39.9894C294.658 40.5196 294.528 41.1605 294.528 41.9121C294.528 42.5613 294.716 43.1097 295.098 43.5524C295.478 43.9967 295.935 44.3469 296.471 44.6046C297.006 44.8606 297.591 45.0407 298.232 45.1431C298.871 45.2455 299.449 45.2967 299.967 45.2967C300.622 45.2967 301.329 45.2125 302.09 45.0407C302.849 44.8706 303.566 44.5798 304.238 44.1685C304.912 43.7589 305.472 43.2369 305.921 42.6042C306.37 41.9716 306.595 41.1936 306.595 40.2702V35.911V35.9126Z"
                      fill="#003873"
                    ></path>
                    <path
                      d="M335.905 31.5534C335.663 29.9132 334.999 28.6743 333.912 27.8352C332.824 26.9977 331.451 26.5781 329.795 26.5781C329.035 26.5781 328.224 26.7069 327.362 26.963C326.498 27.219 325.706 27.698 324.98 28.3984C324.254 29.1005 323.651 30.0734 323.167 31.3222C322.683 32.571 322.441 34.203 322.441 36.2199C322.441 37.3151 322.572 38.4086 322.83 39.5021C323.089 40.5973 323.504 41.5718 324.073 42.4258C324.643 43.2815 325.375 43.9736 326.274 44.5022C327.172 45.0324 328.259 45.2967 329.537 45.2967C331.263 45.2967 332.687 44.7665 333.808 43.7077C334.929 42.6488 335.63 41.1605 335.905 39.2461H341.807C341.255 42.7 339.934 45.3413 337.846 47.1699C335.756 49.0002 332.986 49.9136 329.535 49.9136C327.428 49.9136 325.574 49.5634 323.968 48.8614C322.363 48.161 321.007 47.203 319.903 45.9889C318.797 44.7764 317.961 43.3311 317.391 41.6544C316.821 39.9795 316.537 38.1674 316.537 36.2182C316.537 34.2691 316.812 32.3711 317.366 30.6284C317.918 28.8841 318.747 27.3726 319.851 26.0892C320.955 24.8073 322.328 23.7981 323.968 23.063C325.607 22.3279 327.532 21.9612 329.742 21.9612C331.295 21.9612 332.771 22.1578 334.168 22.5509C335.566 22.9441 336.809 23.5338 337.896 24.32C338.984 25.1063 339.873 26.0974 340.563 27.295C341.254 28.4926 341.667 29.9099 341.806 31.5518H335.903L335.905 31.5534Z"
                      fill="#003873"
                    ></path>
                    <path
                      d="M345.744 12.5788H351.646V33.4002L362.314 22.6814H369.565L359.312 32.4256L370.549 49.1951H363.35L355.169 36.3223L351.648 39.7069V49.1951H345.745V12.5788H345.744Z"
                      fill="#003873"
                    ></path>
                    <path
                      d="M375.674 37.4521C375.674 38.4779 375.821 39.469 376.114 40.4271C376.408 41.3852 376.847 42.2227 377.435 42.9396C378.023 43.6581 378.765 44.2313 379.662 44.6575C380.559 45.0853 381.63 45.2984 382.873 45.2984C384.599 45.2984 385.988 44.9317 387.041 44.195C388.093 43.4599 388.879 42.3581 389.398 40.8863H394.99C394.68 42.3218 394.144 43.6052 393.386 44.7335C392.627 45.8617 391.711 46.8098 390.64 47.5796C389.569 48.3493 388.37 48.9308 387.041 49.3239C385.712 49.7171 384.322 49.9136 382.873 49.9136C380.766 49.9136 378.903 49.5717 377.28 48.8878C375.657 48.204 374.285 47.2476 373.164 46.0153C372.041 44.7847 371.196 43.3145 370.627 41.6049C370.057 39.8952 369.773 38.0154 369.773 35.9638C369.773 34.084 370.075 32.2968 370.679 30.6053C371.283 28.9121 372.145 27.4255 373.267 26.1437C374.388 24.8618 375.744 23.8443 377.332 23.0927C378.92 22.3411 380.715 21.9645 382.718 21.9645C384.823 21.9645 386.714 22.4006 388.389 23.2728C390.063 24.1449 391.452 25.2979 392.557 26.735C393.661 28.1705 394.463 29.8207 394.965 31.6839C395.465 33.5472 395.594 35.4716 395.354 37.4538H375.676L375.674 37.4521ZM389.448 33.605C389.378 32.6816 389.179 31.7929 388.852 30.9389C388.524 30.0849 388.075 29.3416 387.506 28.709C386.936 28.0763 386.245 27.5642 385.435 27.1711C384.622 26.778 383.717 26.5814 382.716 26.5814C381.715 26.5814 380.74 26.7614 379.894 27.1199C379.048 27.4783 378.323 27.9755 377.719 28.6066C377.115 29.2392 376.631 29.9825 376.27 30.8382C375.908 31.6938 375.707 32.6156 375.674 33.6067H389.448V33.605Z"
                      fill="#003873"
                    ></path>
                    <path
                      d="M400.116 22.6814H405.656V27.8104H405.76C405.931 27.0918 406.268 26.3914 406.769 25.7076C407.269 25.0237 407.873 24.3993 408.582 23.836C409.289 23.2711 410.075 22.8185 410.939 22.4766C411.801 22.1346 412.681 21.9645 413.579 21.9645C414.269 21.9645 414.745 21.9827 415.003 22.0157C415.262 22.0504 415.529 22.0851 415.805 22.1181V27.7592C415.392 27.6914 414.968 27.6303 414.536 27.5791C414.104 27.5279 413.682 27.5015 413.267 27.5015C412.264 27.5015 411.325 27.698 410.445 28.0912C409.564 28.4843 408.795 29.0658 408.14 29.8355C407.484 30.6053 406.966 31.5534 406.587 32.6816C406.207 33.8098 406.017 35.1098 406.017 36.58V49.1967H400.114V22.6831L400.116 22.6814Z"
                      fill="#003873"
                    ></path>
                    <path
                      d="M436.778 28.1688C437.743 28.2035 438.711 28.1358 439.678 27.964C440.644 27.7938 441.508 27.4949 442.267 27.067C443.026 26.6392 443.639 26.0495 444.105 25.2979C444.57 24.5463 444.804 23.623 444.804 22.5278C444.804 20.9899 444.276 19.7577 443.224 18.8359C442.17 17.9125 440.816 17.4517 439.159 17.4517C438.124 17.4517 437.226 17.6565 436.467 18.0678C435.707 18.4775 435.078 19.0341 434.578 19.7345C434.077 20.4366 433.705 21.2212 433.464 22.0934C433.222 22.9655 433.118 23.8625 433.153 24.7858H427.251C427.319 23.0415 427.648 21.426 428.235 19.9394C428.822 18.4527 429.624 17.1626 430.643 16.0674C431.66 14.9739 432.895 14.1183 434.346 13.5038C435.795 12.8877 437.435 12.5804 439.266 12.5804C440.68 12.5804 442.07 12.7852 443.434 13.1965C444.797 13.6062 446.023 14.2058 447.11 14.9921C448.198 15.7784 449.07 16.7794 449.726 17.9918C450.381 19.2059 450.71 20.6001 450.71 22.171C450.71 23.9831 450.296 25.5639 449.467 26.9151C448.638 28.2663 447.344 29.2491 445.582 29.8636V29.966C447.654 30.3757 449.267 31.3932 450.424 33.017C451.58 34.6407 452.159 36.6163 452.159 38.9405C452.159 40.6501 451.814 42.1797 451.123 43.5309C450.433 44.8821 449.5 46.0268 448.326 46.9667C447.152 47.9083 445.789 48.6334 444.235 49.1472C442.682 49.6592 441.041 49.9169 439.316 49.9169C437.21 49.9169 435.372 49.6179 433.8 49.02C432.229 48.422 430.918 47.5763 429.864 46.4811C428.81 45.3876 428.008 44.0711 427.456 42.5316C426.904 40.9937 426.61 39.284 426.575 37.4026H432.478C432.408 39.5913 432.951 41.4116 434.109 42.8636C435.265 44.3172 436.999 45.044 439.313 45.044C441.281 45.044 442.929 44.489 444.258 43.3773C445.587 42.2673 446.251 40.6848 446.251 38.6332C446.251 37.2325 445.974 36.1208 445.422 35.2998C444.87 34.4788 444.145 33.8561 443.247 33.4283C442.35 33.0004 441.339 32.7361 440.218 32.6337C439.096 32.5313 437.948 32.4966 436.774 32.5313V28.1721L436.778 28.1688Z"
                      fill="#0A6FE8"
                    ></path>
                    <path
                      d="M474.475 22.3742C474.337 20.904 473.81 19.7164 472.896 18.8095C471.98 17.9043 470.748 17.45 469.193 17.45C468.122 17.45 467.2 17.6466 466.423 18.0397C465.646 18.4329 464.99 18.9549 464.455 19.604C463.919 20.2532 463.487 20.9982 463.16 21.8357C462.832 22.6732 462.565 23.5536 462.358 24.477C462.151 25.4003 462.005 26.3155 461.918 27.2207C461.831 28.1275 461.754 28.9733 461.684 29.7595L461.788 29.862C462.582 28.4265 463.677 27.3578 465.077 26.6574C466.474 25.957 467.984 25.6052 469.608 25.6052C471.403 25.6052 473.008 25.9124 474.424 26.5285C475.838 27.1447 477.039 27.9904 478.023 29.0674C479.007 30.1444 479.758 31.418 480.276 32.8881C480.793 34.3583 481.054 35.949 481.054 37.657C481.054 39.365 480.768 41.0168 480.2 42.5035C479.631 43.9901 478.81 45.2901 477.74 46.4018C476.669 47.5135 475.391 48.3758 473.907 48.9919C472.422 49.608 470.783 49.9153 468.988 49.9153C466.329 49.9153 464.146 49.428 462.438 48.4534C460.729 47.4788 459.383 46.1458 458.399 44.4526C457.414 42.7595 456.732 40.7773 456.354 38.5044C455.973 36.2314 455.783 33.7785 455.783 31.1454C455.783 28.9914 456.017 26.8209 456.482 24.6322C456.947 22.4452 457.716 20.4531 458.787 18.6575C459.856 16.862 461.264 15.4018 463.007 14.2719C464.75 13.1437 466.898 12.5788 469.453 12.5788C470.903 12.5788 472.267 12.8183 473.545 13.2973C474.822 13.7763 475.953 14.4437 476.937 15.2977C477.921 16.1533 478.724 17.1791 479.346 18.3751C479.968 19.5727 480.311 20.9057 480.381 22.3758H474.479L474.475 22.3742ZM468.78 45.0424C469.849 45.0424 470.781 44.8293 471.577 44.4014C472.371 43.9736 473.034 43.4186 473.57 42.7347C474.105 42.0509 474.502 41.2563 474.761 40.3495C475.019 39.4443 475.149 38.5126 475.149 37.5546C475.149 36.5965 475.019 35.6748 474.761 34.7861C474.502 33.8974 474.105 33.1194 473.57 32.452C473.034 31.7847 472.371 31.2462 471.577 30.8365C470.783 30.4269 469.85 30.2204 468.78 30.2204C467.709 30.2204 466.768 30.417 465.957 30.8101C465.145 31.2032 464.463 31.7335 463.913 32.3992C463.361 33.0665 462.945 33.8445 462.67 34.7332C462.393 35.6219 462.256 36.5635 462.256 37.5546C462.256 38.5457 462.393 39.4872 462.67 40.3759C462.945 41.2646 463.361 42.0608 463.913 42.7612C464.465 43.4615 465.147 44.0182 465.957 44.4279C466.768 44.8375 467.709 45.044 468.78 45.044V45.0424Z"
                      fill="#0A6FE8"
                    ></path>
                    <path
                      d="M497.467 12.5788C500.056 12.5788 502.171 13.1685 503.81 14.3479C505.45 15.5273 506.728 17.0321 507.643 18.8607C508.557 20.6909 509.179 22.6996 509.508 24.8866C509.835 27.0753 510 29.1946 510 31.2462C510 33.2978 509.837 35.4171 509.508 37.6058C509.179 39.7945 508.557 41.8031 507.643 43.6317C506.728 45.4619 505.45 46.9651 503.81 48.1445C502.171 49.3239 500.056 49.9136 497.467 49.9136C494.879 49.9136 492.762 49.3239 491.124 48.1445C489.485 46.9651 488.207 45.4603 487.293 43.6317C486.378 41.8031 485.757 39.7945 485.428 37.6058C485.1 35.4187 484.936 33.2978 484.936 31.2462C484.936 29.1946 485.1 27.0753 485.428 24.8866C485.755 22.6996 486.378 20.6893 487.293 18.8607C488.207 17.0321 489.485 15.5273 491.124 14.3479C492.764 13.1685 494.879 12.5788 497.467 12.5788ZM497.467 45.0424C498.743 45.0424 499.814 44.6756 500.678 43.9406C501.54 43.2055 502.223 42.2144 502.723 40.9656C503.223 39.7185 503.577 38.2566 503.784 36.5816C503.991 34.9067 504.094 33.1293 504.094 31.2478C504.094 29.3664 503.991 27.5989 503.784 25.9405C503.577 24.282 503.222 22.8202 502.723 21.5549C502.223 20.2912 501.54 19.2902 500.678 18.5551C499.814 17.8201 498.745 17.4533 497.467 17.4533C496.19 17.4533 495.077 17.8217 494.23 18.5551C493.384 19.2902 492.711 20.2912 492.21 21.5549C491.71 22.8202 491.356 24.282 491.149 25.9405C490.943 27.5989 490.839 29.3681 490.839 31.2478C490.839 33.1276 490.943 34.9067 491.149 36.5816C491.356 38.2566 491.71 39.7185 492.21 40.9656C492.711 42.2144 493.383 43.2055 494.23 43.9406C495.076 44.6756 496.155 45.0424 497.467 45.0424Z"
                      fill="#0A6FE8"
                    ></path>
                    <path
                      d="M24.6849 57C11.0732 57 0 46.0318 0 32.5528C0 19.0738 11.0732 8.10556 24.6849 8.10556C38.2966 8.10556 49.3698 19.0721 49.3698 32.5528C49.3698 46.0334 38.2966 57 24.6849 57ZM24.6849 10.7485C12.5443 10.7485 2.66864 20.529 2.66864 32.5528C2.66864 44.5765 12.5443 54.357 24.6849 54.357C36.8255 54.357 46.7012 44.5765 46.7012 32.5528C46.7012 20.529 36.8255 10.7485 24.6849 10.7485Z"
                      fill="#003873"
                    ></path>
                    <path
                      d="M24.6849 57C11.0732 57 0 46.0318 0 32.5528H2.66864C2.66864 44.5765 12.5443 54.357 24.6849 54.357C36.8255 54.357 46.7012 44.5765 46.7012 32.5528H49.3698C49.3698 46.0334 38.2966 57 24.6849 57Z"
                      fill="#0A6FE8"
                    ></path>
                    <path
                      d="M24.6849 47.3632C16.4388 47.3632 9.72888 40.7195 9.72888 32.5511C9.72888 24.3828 16.4372 17.7391 24.6849 17.7391C32.9327 17.7391 39.641 24.3828 39.641 32.5511C39.641 40.7195 32.9327 47.3632 24.6849 47.3632ZM24.6849 20.3837C17.9099 20.3837 12.3975 25.843 12.3975 32.5528C12.3975 39.2625 17.9099 44.7219 24.6849 44.7219C31.4599 44.7219 36.9723 39.2625 36.9723 32.5528C36.9723 25.843 31.4599 20.3837 24.6849 20.3837Z"
                      fill="#003873"
                    ></path>
                    <path
                      d="M24.6849 47.3632C16.4388 47.3632 9.72888 40.7195 9.72888 32.5511H12.3975C12.3975 39.2609 17.9099 44.7202 24.6849 44.7202C31.4599 44.7202 36.9723 39.2609 36.9723 32.5511H39.641C39.641 40.7178 32.9327 47.3632 24.6849 47.3632Z"
                      fill="#0A6FE8"
                    ></path>
                    <path
                      d="M24.6849 20.3837C23.9477 20.3837 23.3506 19.7923 23.3506 19.0622V9.42703C23.3506 8.69692 23.9477 8.10556 24.6849 8.10556C25.4221 8.10556 26.0192 8.69692 26.0192 9.42703V19.0622C26.0192 19.7923 25.4221 20.3837 24.6849 20.3837Z"
                      fill="#003873"
                    ></path>
                    <path
                      d="M26.0192 46.0417H23.3506V55.6769H26.0192V46.0417Z"
                      fill="#0A6FE8"
                    ></path>
                    <path
                      d="M48.0355 33.8742H38.3066C37.5694 33.8742 36.9723 33.2829 36.9723 32.5528C36.9723 31.8227 37.5694 31.2313 38.3066 31.2313H48.0355C48.7727 31.2313 49.3698 31.8227 49.3698 32.5528C49.3698 33.2829 48.7727 33.8742 48.0355 33.8742Z"
                      fill="#0A6FE8"
                    ></path>
                    <path
                      d="M11.0632 33.8742H1.33432C0.597108 33.8742 0 33.2829 0 32.5528C0 31.8227 0.597108 31.2313 1.33432 31.2313H11.0632C11.8004 31.2313 12.3975 31.8227 12.3975 32.5528C12.3975 33.2829 11.8004 33.8742 11.0632 33.8742Z"
                      fill="#003873"
                    ></path>
                    <path
                      d="M27.537 35.4204L42.2162 15.6809C42.4146 15.3951 42.066 15.0499 41.7775 15.2465L21.8461 29.7843L7.26867 49.4296C7.05685 49.7253 7.41878 50.0904 7.72067 49.8839L27.5386 35.422L27.537 35.4204Z"
                      fill="#003873"
                    ></path>
                    <path
                      d="M24.6582 38.6398C28.0453 38.6398 30.7911 35.9205 30.7911 32.566C30.7911 29.2115 28.0453 26.4922 24.6582 26.4922C21.2711 26.4922 18.5253 29.2115 18.5253 32.566C18.5253 35.9205 21.2711 38.6398 24.6582 38.6398Z"
                      fill="#003873"
                    ></path>
                    <path
                      d="M27.6421 10.7535C27.2735 10.7535 26.9066 10.6032 26.643 10.3075C26.1543 9.76072 26.206 8.92654 26.7581 8.44255C27.477 7.8132 27.889 6.90634 27.889 5.95818C27.889 4.1296 26.3862 2.64129 24.5398 2.64129C22.6934 2.64129 21.1907 4.1296 21.1907 5.95818C21.1907 6.90634 21.6026 7.81155 22.3215 8.44255C22.8736 8.92654 22.9253 9.76072 22.4366 10.3075C21.9479 10.8542 21.1056 10.9054 20.5535 10.4215C19.2626 9.28994 18.522 7.66288 18.522 5.95818C18.522 2.67268 21.2224 0 24.5398 0C27.8573 0 30.5576 2.67268 30.5576 5.95983C30.5576 7.66453 29.817 9.29159 28.5261 10.4231C28.2726 10.6461 27.9573 10.7551 27.6421 10.7551V10.7535Z"
                      fill="#003873"
                    ></path>
                  </g>
                  <defs>
                    <clipPath id="clip0_970_359924">
                      <rect width="510" height="57" fill="white"></rect>
                    </clipPath>
                  </defs>
                </svg>